<svg xmlns="http://www.w3.org/2000/svg" width="15.259" height="11.342" viewBox="0 0 15.259 11.342"><path d="M7.63,11.341a1,1,0,0,1-.59-.185c-.616-.45-1.211-.873-1.735-1.247l0,0A30.686,30.686,0,0,1,1.514,6.937,4.358,4.358,0,0,1,0,3.831,3.632,3.632,0,0,1,1.211,1.11,4.513,4.513,0,0,1,4.263,0a4.343,4.343,0,0,1,2.4.691,4.541,4.541,0,0,1,.969.846A4.542,4.542,0,0,1,8.6.691,4.343,4.343,0,0,1,11,0a4.514,4.514,0,0,1,3.052,1.11,3.632,3.632,0,0,1,1.21,2.721,4.357,4.357,0,0,1-1.513,3.106A30.682,30.682,0,0,1,9.958,9.907c-.525.374-1.121.8-1.738,1.249a1,1,0,0,1-.59.185ZM4.263.747a3.542,3.542,0,0,0-2.4.869A2.951,2.951,0,0,0,.894,3.831,3.676,3.676,0,0,0,2.2,6.46a30.213,30.213,0,0,0,3.68,2.879l0,0c.526.375,1.123.8,1.744,1.253.625-.454,1.222-.88,1.75-1.255a30.22,30.22,0,0,0,3.68-2.879,3.676,3.676,0,0,0,1.308-2.629,2.951,2.951,0,0,0-.974-2.215A3.541,3.541,0,0,0,11,.747a3.354,3.354,0,0,0-1.851.535,3.892,3.892,0,0,0-1.031,1,.626.626,0,0,1-.969,0,3.888,3.888,0,0,0-1.031-1A3.354,3.354,0,0,0,4.263.747Zm0,0" transform="translate(0)"/></svg>